<svg xmlns="http://www.w3.org/2000/svg" width="888" height="200" viewBox="0 0 888 200">
  <path fill="none" d="M345.373 149.704h197.254v42.32H345.373z"/>
  <path fill="#88C0D0" d="M347.803 149.705h1.35l21.959 31.004h.09v-31.004h.9v32.129h-1.35l-21.959-31.004h-.09v31.004h-.9v-32.129zm38.429 8.46c6.75 0 10.395 5.805 10.395 12.104 0 6.345-3.645 12.104-10.44 12.104-6.75 0-10.395-5.76-10.395-12.104 0-6.299 3.646-12.104 10.44-12.104zm0 23.309c6.165 0 9.495-5.354 9.495-11.204 0-5.76-3.33-11.205-9.495-11.205-6.255 0-9.54 5.445-9.54 11.205.001 5.849 3.286 11.204 9.54 11.204zm15.031.36h-.9v-23.129h.9v5.715h.09c.855-3.42 3.555-6.435 9.09-6.255v.899c-6.345-.314-9.18 4.636-9.18 9.675v13.095zm28.753-32.129h.9v32.129h-.9v-6.479h-.09c-1.17 4.05-4.545 7.02-9.27 7.02-6.12 0-9.855-5.085-9.855-12.06 0-6.479 3.465-12.149 9.855-12.149 4.905 0 8.189 2.835 9.27 7.02h.09v-15.481zm-9.359 9.359c-6.345 0-8.955 5.896-8.955 11.25 0 5.939 2.97 11.159 8.955 11.159 5.939 0 9.359-5.175 9.359-11.159 0-7.154-3.735-11.25-9.359-11.25z"/>
  <path fill="#2E3440" d="M468.535 179.944c-.045 6.93-2.699 11.159-10.305 11.159-4.635 0-9.225-2.07-9.629-7.02h2.834c.631 3.42 3.646 4.635 6.795 4.635 5.221 0 7.471-3.104 7.471-8.774v-3.15h-.091c-1.305 2.835-4.05 4.771-7.38 4.771-7.424 0-10.484-5.311-10.484-11.925 0-6.39 3.779-11.699 10.484-11.699 3.375 0 6.255 2.114 7.38 4.68h.091v-4.005h2.834v21.328zm-2.834-9.99c0-4.545-2.115-9.629-7.471-9.629-5.399 0-7.649 4.814-7.649 9.629 0 4.681 2.431 9.225 7.649 9.225 4.906 0 7.471-4.499 7.471-9.225zm9.901 1.035c.045 4.14 2.205 9.135 7.648 9.135 4.141 0 6.391-2.43 7.291-5.939h2.834c-1.215 5.265-4.273 8.324-10.125 8.324-7.379 0-10.484-5.67-10.484-12.284 0-6.12 3.105-12.284 10.484-12.284 7.471 0 10.439 6.524 10.215 13.049h-17.863zm15.029-2.385c-.135-4.274-2.791-8.279-7.381-8.279-4.635 0-7.199 4.05-7.648 8.279h15.029zm27.09 13.23h-2.609v-4.41h-.092c-1.215 3.016-4.904 5.085-8.279 5.085-7.064 0-10.439-5.715-10.439-12.284 0-6.57 3.375-12.284 10.439-12.284 3.465 0 6.84 1.755 8.055 5.084h.09v-13.319h2.836v32.128zm-10.981-1.71c6.031 0 8.145-5.085 8.145-9.899 0-4.815-2.113-9.899-8.145-9.899-5.398 0-7.604 5.084-7.604 9.899.001 4.814 2.206 9.899 7.604 9.899zm16.426-30.419H526v4.545h-2.834v-4.545zm0 8.91H526v23.219h-2.834v-23.219zm12.779 0h4.725V161h-4.725v15.659c0 1.845.27 2.925 2.295 3.06.811 0 1.619-.045 2.43-.135v2.43c-.855 0-1.664.09-2.52.09-3.779 0-5.086-1.26-5.039-5.22V161h-4.051v-2.385h4.051v-6.975h2.834v6.975z"/>
  <g fill="#2E3440">
    <path d="M466.56 131.704l-43.392-55.545V60.747l48.091 62.172h25.844V35.374h-43.465l-9.395-9.398h62.256v105.728z"/>
    <path d="M421.44 25.976l43.393 55.541v15.41l-48.091-62.168h-25.843v87.545h43.463l9.4 9.4H381.5V25.976z"/>
  </g>
</svg>
